<?xml version="1.0" encoding="UTF-8" standalone="no"?><!DOCTYPE svg PUBLIC "-//W3C//DTD SVG 1.1//EN" "http://www.w3.org/Graphics/SVG/1.1/DTD/svg11.dtd"><svg width="100%" height="100%" viewBox="0 0 641 164" version="1.1" xmlns="http://www.w3.org/2000/svg" xmlns:xlink="http://www.w3.org/1999/xlink" xml:space="preserve" xmlns:serif="http://www.serif.com/" style="fill-rule:evenodd;clip-rule:evenodd;stroke-linejoin:round;stroke-miterlimit:2;"><rect id="No-Tagline" serif:id="No Tagline" x="0.557" y="0.899" width="640" height="162.4" style="fill:none;"/><g><g><rect x="20.557" y="20.899" width="122.429" height="122.429" style="fill:#fff;"/><path d="M20.557,91.907l26.935,51.42l-26.935,0l0,-51.42Z" style="fill:#0033a0;"/><path d="M142.986,77.216l-41.626,66.025l41.626,0l0,-66.025Z" style="fill:#0033a0;"/><path d="M142.986,43.252l-63.038,99.989l10.394,0l52.644,-84.389l0,-15.6Z" style="fill:#0033a0;"/><path d="M135.406,20.899l-77.033,122.342l10.394,0l74.219,-118.859l0,-3.483l-7.58,0Z" style="fill:#0033a0;"/><path d="M52.932,133.533l70.465,-112.634l-102.84,0l0,50.195l32.375,62.439Z" style="fill:#00a9e0;"/></g><g><path d="M596.005,65.177c7.129,0.083 14.212,2.757 18.719,8.408c3.817,4.788 5.748,11.01 5.833,17.001c0,0 -0.05,0.769 -0.05,0.769c0,0 -0.42,1.308 -0.42,1.308c-0.223,0.367 -0.334,0.71 -1.327,1.562c0,0 -1.223,0.626 -1.223,0.626c-0.669,0.162 -0.67,0.162 -1.357,0.217c0,0 -36.025,0.04 -36.025,0.04c0.983,6.088 4.844,11.586 11.339,13.331c6.358,1.709 13.48,0.842 18.882,-3.003c0.109,-0.078 0.259,-0.194 0.259,-0.194l1.771,-0.883l1.922,-0.133l1.833,0.593c0,0 1.519,1.299 1.519,1.299l0.883,1.772c0.133,1.909 0.13,1.934 -0.459,3.755l-1.284,1.507c-12.275,9.598 -34.137,7.458 -42.196,-6.106c-9.314,-15.678 -1.805,-40.494 19.159,-41.81c0.71,-0.044 0.916,-0.065 2.222,-0.059Zm-0.235,8.828c-3.963,0.033 -7.995,1.167 -10.833,4.016c-2.242,2.25 -3.607,5.232 -4.399,8.288c0,0 30.672,0.003 30.672,0.003c-0.039,-0.166 -0.079,-0.331 -0.121,-0.496c-1.67,-6.388 -7.05,-11.627 -14.734,-11.807c-0.195,-0.003 -0.39,-0.005 -0.585,-0.004Z" style="fill:#002d72;fill-rule:nonzero;"/><path d="M541.201,71.145c2.405,-2.735 5.359,-4.793 8.617,-5.715c2,-0.566 4.077,-0.871 6.15,-0.863c3.214,0.039 6.534,0.389 9.383,1.628c0,0 1.63,1.14 1.63,1.14l1.033,1.626l0.353,1.894c0,0 -0.418,1.955 -0.418,1.955l-1.137,1.621c-1.615,1.027 -1.637,1.036 -3.52,1.386c0,0 -2.254,-0.533 -1.879,-0.387c0.15,0.058 -4.767,-1.05 -7.305,-0.892c-5.207,0.326 -9.867,3.165 -12.907,5.874l0,33.189c-0.034,1.195 -0.199,1.586 -0.534,2.253c-1.924,3.833 -9.349,3.153 -9.507,-2.253l0,-44.011c0.028,-0.95 0.12,-1.213 0.303,-1.717c0.705,-1.936 2.224,-3.231 4.718,-3.303c0.097,0.003 0.194,0.006 0.292,0.008c0.947,0.083 1.204,0.19 1.696,0.402c1.804,0.778 2.963,2.209 3.032,4.61l0,1.555Z" style="fill:#002d72;fill-rule:nonzero;"/><path d="M312.094,64.568c11.281,0.123 22.531,6.777 26.252,17.596c1.131,3.289 0.908,6.891 0.924,10.414c0.037,8.316 0.047,16.655 0.047,24.991c0,0 -0.256,3.479 -1.227,6.029c-4.124,10.822 -15.533,18.209 -27.621,17.407c-8.288,-0.55 -16.819,-3.785 -21.752,-10.451c0,0 -0.842,-1.802 -0.842,-1.802l-0.082,-1.925l0.641,-1.817c0.54,-0.601 1.34,-1.484 1.34,-1.484l1.794,-0.835c1.912,-0.082 1.937,-0.079 3.742,0.559c0,0 1.448,1.292 1.448,1.292c6.684,8.734 26.101,9.861 31.843,-4.251c1.105,-2.716 0.674,-5.772 0.672,-8.797c0,0 0.578,-2.393 -0.344,-1.123c-4.28,5.818 -11.269,9.127 -19.326,8.952c-9.475,-0.206 -18.662,-5.335 -22.513,-14.924c-5.127,-12.766 -1.421,-29.061 10.688,-36.214c4.297,-2.539 9.4,-3.639 14.316,-3.617Zm-0.389,10.04c-4.162,0.036 -8.357,1.291 -11.394,4.163c-9.184,8.683 -5.25,25.617 2.986,30.022c7.232,3.87 16.202,2.686 21.522,-2.669c1.766,-1.778 3.201,-3.86 4.411,-6.058l0.023,-0.042c-0.01,-4.413 0.227,-8.82 -0.069,-13.251c-0.581,-6.862 -9.983,-12.18 -17.479,-12.165Z" style="fill:#002d72;fill-rule:nonzero;"/><path d="M372.238,74.609c-7.753,0.074 -15.033,6.017 -16.696,13.752c-2.161,10.052 6.218,21.199 16.696,21.267c7.816,0.05 15.188,-5.93 16.896,-13.646c2.204,-9.95 -5.554,-21.195 -16.562,-21.372c-0.111,-0.001 -0.222,-0.002 -0.334,-0.001Zm0.463,-10.04c12.39,0.199 23.865,9.75 26.343,22.016c2.522,12.48 -4.715,26.288 -16.529,31.099c-12.102,4.929 -27.408,-0.434 -33.892,-12.021c-5.921,-10.581 -3.823,-25.024 4.907,-33.461c5.069,-4.9 12.067,-7.701 19.171,-7.633Z" style="fill:#002d72;fill-rule:nonzero;"/><g><path d="M266.145,104.102l0,-34.512c0.028,-0.95 0.12,-1.213 0.303,-1.717c0.705,-1.936 2.224,-3.231 4.718,-3.303c0.097,0.003 0.194,0.006 0.292,0.008c0.946,0.083 1.204,0.19 1.696,0.402c1.801,0.777 2.962,2.209 3.032,4.61l0,44.011c-0.035,1.195 -0.199,1.586 -0.534,2.253c-1.959,3.901 -9.358,2.869 -9.507,-2.253l0,-1.238c-2.644,2.631 -5.778,4.61 -8.882,5.617c-12.261,3.976 -29.707,0.177 -31.19,-17.509c-0.47,-5.599 -0.127,-11.317 -0.173,-16.982c-0.037,-4.619 -0.075,-9.238 -0.113,-13.858c0,0 0.38,-1.952 0.38,-1.952c1.059,-1.595 1.077,-1.613 2.654,-2.697c0,0 1.956,-0.412 1.956,-0.412c0.647,0.127 1.295,0.254 1.942,0.38c1.595,1.059 1.612,1.076 2.697,2.653l0.412,1.937c0.08,9.864 0.163,19.725 0.241,29.585c0.057,7.139 7.745,11.422 16.044,10.86c5.208,-0.353 10.195,-2.249 14.032,-5.883Z" style="fill:#002d72;fill-rule:nonzero;"/></g><g><path d="M509.497,104.102l0,-34.512c0.027,-0.95 0.119,-1.213 0.303,-1.717c0.704,-1.936 2.224,-3.231 4.717,-3.303c0.098,0.003 0.195,0.006 0.292,0.008c0.947,0.083 1.205,0.19 1.697,0.402c1.8,0.777 2.962,2.209 3.032,4.61l0,44.011c-0.129,4.442 -7.206,6.836 -9.507,2.253c-0.335,-0.667 -0.499,-1.058 -0.534,-2.253l0,-1.238c-2.644,2.631 -5.778,4.61 -8.882,5.617c-12.261,3.976 -29.707,0.177 -31.19,-17.509c-0.47,-5.599 -0.127,-11.317 -0.173,-16.982c-0.038,-4.619 -0.075,-9.238 -0.113,-13.858c0,0 0.38,-1.952 0.38,-1.952c1.059,-1.595 1.076,-1.613 2.653,-2.697c0,0 1.957,-0.412 1.957,-0.412c0.647,0.127 1.295,0.254 1.942,0.38c1.595,1.059 1.612,1.076 2.697,2.653l0.412,1.937c0.08,9.864 0.163,19.725 0.241,29.585c0.056,7.139 7.745,11.422 16.043,10.86c5.209,-0.353 10.195,-2.249 14.033,-5.883Z" style="fill:#002d72;fill-rule:nonzero;"/></g><path d="M192.864,40.515c9.961,0.124 19.878,5.342 24.277,14.444c0,0 0.952,5.973 -3.318,7.036c-2.016,0.502 -4.302,-0.398 -5.432,-2.151c-0.227,-0.352 -0.002,-0.06 -0.605,-1.11c-4.786,-8.13 -16.544,-10.11 -25.69,-6.484c-5.79,2.296 -9.569,10.009 -4.536,16.148c3.546,4.325 10.061,5.312 15.285,6.005c8.907,1.219 18.194,4.4 22.487,11.724c5.505,9.393 2.988,23.128 -6.414,29.13c-6.722,4.29 -15.437,5.04 -22.762,4.188c-8.91,-1.036 -17.652,-5.758 -22.425,-13.324c0,0 -1.581,-3.453 0.339,-5.832c1.995,-2.471 6.232,-2.325 8.153,0.475c0.242,0.353 0.248,0.348 0.365,0.501c5.924,7.613 16.861,10.164 26.958,7.25c2.664,-0.769 5.31,-2.138 6.816,-4.532c2.552,-4.054 2.573,-9.719 -0.143,-13.465c-3.597,-4.961 -11.101,-5.73 -17.276,-6.471c-1.601,-0.205 -1.734,-0.242 -2.494,-0.381c-8.296,-1.517 -16.547,-6.112 -19.799,-14.211c-3.52,-8.763 -0.337,-19.658 8.01,-24.697c5.435,-3.282 12.036,-4.274 18.204,-4.243Z" style="fill:#002d72;fill-rule:nonzero;"/><path d="M436.215,40.515c9.937,0.124 19.835,5.252 24.278,14.444c0,0 1.021,3.238 -0.594,5.279c-1.968,2.489 -6.417,2.304 -8.156,-0.394c-0.227,-0.352 -0.002,-0.06 -0.606,-1.11c-4.786,-8.13 -16.543,-10.11 -25.689,-6.484c-5.787,2.295 -9.449,10.154 -4.536,16.148c3.545,4.325 10.061,5.312 15.284,6.005c8.894,1.217 18.18,4.376 22.488,11.724c5.482,9.353 2.978,23.042 -6.288,29.048c-6.724,4.358 -15.508,5.129 -22.888,4.27c-8.886,-1.033 -17.653,-5.758 -22.426,-13.324c0,0 -1.303,-2.363 -0.403,-4.573c1.333,-3.27 6.454,-4.115 8.689,-1.087c0.321,0.435 0.417,0.6 0.571,0.804c5.968,7.668 17.005,10.235 27.171,7.187c2.586,-0.775 5.135,-2.134 6.604,-4.469c2.552,-4.054 2.573,-9.72 -0.143,-13.465c-3.528,-4.865 -10.703,-5.728 -16.911,-6.427c-1.759,-0.211 -1.967,-0.262 -2.86,-0.425c-8.275,-1.513 -16.546,-6.112 -19.799,-14.211c-3.357,-8.361 -0.83,-18.753 7.036,-24.075c5.578,-3.773 12.548,-4.898 19.178,-4.865Z" style="fill:#002d72;fill-rule:nonzero;"/></g></g></svg>